<?xml version="1.0" encoding="utf-8"?>
<!-- Generator: Adobe Illustrator 16.0.0, SVG Export Plug-In . SVG Version: 6.00 Build 0)  -->
<!DOCTYPE svg PUBLIC "-//W3C//DTD SVG 1.1//EN" "http://www.w3.org/Graphics/SVG/1.1/DTD/svg11.dtd">
<svg version="1.1" id="Layer_1" xmlns="http://www.w3.org/2000/svg" xmlns:xlink="http://www.w3.org/1999/xlink" x="0px" y="0px"
	 width="458.594px" height="152.861px" viewBox="0 0 458.594 152.861" enable-background="new 0 0 458.594 152.861"
	 xml:space="preserve">
<g>
	<polygon fill-rule="evenodd" clip-rule="evenodd" fill="#C3C4CA" points="55.583,21.305 84.526,34.46 84.526,68.002 55.583,50.902 
		55.583,21.305 	"/>
	<polygon fill-rule="evenodd" clip-rule="evenodd" fill="#B0B1B0" points="112.808,23.935 84.526,34.46 84.526,68.002 
		112.997,51.559 112.808,23.935 	"/>
	<polygon fill-rule="evenodd" clip-rule="evenodd" fill="#FFFFFF" points="112.808,23.935 84.526,34.46 55.583,21.305 
		80.577,14.729 112.808,23.935 	"/>
	<polygon fill-rule="evenodd" clip-rule="evenodd" fill="#C3C4CA" points="30.259,54.853 0,35.775 0,69.979 30.485,95.633 
		30.259,54.853 	"/>
	<polygon fill-rule="evenodd" clip-rule="evenodd" fill="#9B9B9B" points="69.727,40.38 30.259,54.853 30.485,95.633 69.727,75.899 
		69.727,40.38 	"/>
	<polygon fill-rule="evenodd" clip-rule="evenodd" fill="#FFFFFF" points="0,35.775 35.521,25.25 69.727,40.38 30.259,54.853 
		0,35.775 	"/>
	<polygon fill-rule="evenodd" clip-rule="evenodd" fill="#9B9B9B" points="139.119,54.853 139.119,95.633 168.506,70.64 
		168.719,35.775 139.119,54.853 	"/>
	<polygon fill-rule="evenodd" clip-rule="evenodd" fill="#C3C4CA" points="139.119,54.853 100.309,39.722 100.309,75.899 
		139.119,95.633 139.119,54.853 	"/>
	<polygon fill-rule="evenodd" clip-rule="evenodd" fill="#FFFFFF" points="139.119,54.853 100.309,39.722 132.542,25.25 
		168.719,35.775 139.119,54.853 	"/>
	<polygon fill-rule="evenodd" clip-rule="evenodd" fill="#C3C4CA" points="85.182,92.342 40.455,64.061 40.455,116.686 
		85.173,152.861 85.182,92.342 	"/>
	<polygon fill-rule="evenodd" clip-rule="evenodd" fill="#9B9B9B" points="127.28,64.719 85.182,92.342 85.173,152.861 
		127.572,115.044 127.28,64.719 	"/>
	<polygon fill-rule="evenodd" clip-rule="evenodd" fill="#FFFFFF" points="127.28,64.719 85.182,92.342 40.455,64.061 
		83.867,45.643 127.28,64.719 	"/>
</g>
<g>
	<path fill="#9D9D9C" d="M118.839,29.452l2.285-1.371c1.609,2.961,3.468,4.442,5.576,4.442c0.901,0,1.748-0.21,2.541-0.63
		c0.792-0.42,1.396-0.984,1.81-1.691s0.622-1.457,0.622-2.249c0-0.902-0.306-1.785-0.914-2.651
		c-0.842-1.194-2.377-2.632-4.607-4.314c-2.242-1.694-3.638-2.918-4.187-3.674c-0.95-1.267-1.426-2.638-1.426-4.113
		c0-1.17,0.28-2.236,0.841-3.199s1.35-1.722,2.368-2.276c1.017-0.554,2.123-0.832,3.317-0.832c1.268,0,2.453,0.314,3.556,0.941
		c1.103,0.628,2.27,1.782,3.501,3.464l-2.193,1.664c-1.012-1.341-1.874-2.224-2.587-2.651c-0.713-0.426-1.49-0.64-2.331-0.64
		c-1.085,0-1.972,0.329-2.66,0.987c-0.688,0.658-1.032,1.469-1.032,2.432c0,0.585,0.121,1.151,0.365,1.7
		c0.244,0.548,0.688,1.146,1.335,1.792c0.353,0.341,1.511,1.237,3.473,2.687c2.328,1.718,3.925,3.248,4.79,4.588
		c0.865,1.341,1.298,2.688,1.298,4.04c0,1.95-0.74,3.645-2.221,5.082c-1.481,1.438-3.282,2.157-5.402,2.157
		c-1.634,0-3.114-0.436-4.442-1.307C121.186,32.958,119.96,31.499,118.839,29.452z"/>
	<path fill="#9D9D9C" d="M156.814,6.893c4.072,0,7.481,1.359,10.225,4.077c2.744,2.718,4.116,6.063,4.116,10.036
		c0,3.937-1.369,7.276-4.106,10.018c-2.738,2.742-6.076,4.113-10.016,4.113c-3.987,0-7.354-1.365-10.097-4.095
		c-2.744-2.73-4.116-6.033-4.116-9.908c0-2.583,0.625-4.979,1.875-7.185c1.25-2.206,2.954-3.933,5.112-5.183
		C151.967,7.518,154.302,6.893,156.814,6.893z M156.933,9.507c-1.989,0-3.875,0.518-5.657,1.555
		c-1.782,1.037-3.174,2.433-4.175,4.189s-1.502,3.714-1.502,5.873c0,3.196,1.108,5.895,3.323,8.096
		c2.216,2.202,4.886,3.302,8.011,3.302c2.088,0,4.02-0.506,5.796-1.518c1.775-1.013,3.161-2.396,4.156-4.153
		c0.994-1.756,1.492-3.708,1.492-5.855c0-2.134-0.498-4.064-1.492-5.791c-0.995-1.726-2.396-3.107-4.202-4.144
		C160.876,10.025,158.959,9.507,156.933,9.507z"/>
	<path fill="#9D9D9C" d="M191.278,7.569l12.541,26.891h-2.902l-4.229-8.848h-11.585l-4.189,8.848h-2.998L190.62,7.569H191.278z
		 M190.939,13.283l-4.608,9.734h9.193L190.939,13.283z"/>
</g>
<g>
	<g>
		<path fill="#D78C30" d="M226.995,16.129l-2.493,3.996c-0.642-0.953-1.316-1.655-2.023-2.105c-0.706-0.451-1.367-0.676-1.982-0.676
			c-0.472,0-0.87,0.131-1.197,0.392c-0.328,0.262-0.491,0.555-0.491,0.881c0,0.313,0.131,0.627,0.393,0.94
			c0.249,0.313,1.002,0.92,2.259,1.821c2.003,1.437,3.321,2.667,3.957,3.692c0.635,1.025,0.952,2.138,0.952,3.339
			c0,1.58-0.649,3.075-1.949,4.485c-1.299,1.41-3.183,2.115-5.65,2.115c-1.424,0-2.72-0.287-3.888-0.862
			c-1.169-0.574-2.472-1.625-3.908-3.153l3.232-3.761c1.462,1.933,3.062,2.899,4.799,2.899c0.691,0,1.243-0.167,1.654-0.5
			c0.412-0.333,0.617-0.728,0.617-1.185c0-0.365-0.156-0.741-0.47-1.126s-1.169-1.074-2.566-2.066
			c-1.619-1.149-2.735-2.135-3.349-2.958c-0.862-1.149-1.293-2.363-1.293-3.643c0-1.789,0.676-3.245,2.027-4.368
			c1.352-1.123,2.947-1.684,4.789-1.684c1.292,0,2.52,0.307,3.682,0.92S226.225,15.006,226.995,16.129z"/>
		<path fill="#D78C30" d="M250.589,12.604c1.893,0,3.613,0.438,5.161,1.312c1.547,0.875,2.752,2.115,3.613,3.722
			c0.862,1.606,1.293,3.408,1.293,5.406c0,3.317-1.182,6.14-3.545,8.471c-2.364,2.331-5.289,3.496-8.775,3.496
			c-3.029,0-5.445-0.917-7.247-2.752c-1.802-1.834-2.703-4.233-2.703-7.198c0-3.578,1.222-6.548,3.663-8.912
			C244.49,13.786,247.337,12.604,250.589,12.604z M250.225,17.559c-2.138,0-3.776,0.768-4.917,2.302
			c-1.142,1.534-1.711,3.196-1.711,4.984c0,1.593,0.465,2.876,1.397,3.849s2.174,1.459,3.726,1.459c2.203,0,3.881-0.741,5.035-2.223
			c1.153-1.482,1.73-3.176,1.73-5.083c0-1.567-0.489-2.84-1.467-3.819C253.041,18.049,251.776,17.559,250.225,17.559z"/>
		<path fill="#D78C30" d="M271.989,13.152h2.272c0.365-2.781,0.773-4.685,1.224-5.709c0.451-1.025,1.061-1.792,1.832-2.302
			c0.77-0.509,1.724-0.764,2.859-0.764c1.476,0,2.84,0.424,4.094,1.273l-0.588,4.27c-0.719-0.64-1.443-0.959-2.174-0.959
			c-0.549,0-0.95,0.199-1.205,0.597c-0.255,0.398-0.525,1.596-0.812,3.594h3.251l-0.567,4.505h-3.238l-2.355,16.805h-5.219
			l2.297-16.805h-2.237L271.989,13.152z"/>
		<path fill="#D78C30" d="M294.992,5.239h5.199l-1.076,7.913h3.311l-0.627,4.505h-3.296l-2.285,16.805h-5.219l2.297-16.805h-2.566
			l0.607-4.505h2.574L294.992,5.239z"/>
		<path fill="#D78C30" d="M311.205,13.152h5.037l2.944,11.419l6.201-11.419h2.062l2.98,11.419l6.188-11.419h5.553l-11.592,21.31
			h-2.52L325.16,23.2l-6.071,11.262h-2.465L311.205,13.152z"/>
		<path fill="#D78C30" d="M369.754,13.152h5.236l-2.971,21.31h-5.177l0.312-2.289c-1.138,1.057-2.199,1.794-3.187,2.211
			s-2.095,0.626-3.324,0.626c-2.823,0-5.069-1.038-6.735-3.114c-1.667-2.076-2.501-4.492-2.501-7.247
			c0-2.102,0.533-4.103,1.601-6.003c1.066-1.9,2.498-3.382,4.296-4.446c1.798-1.064,3.678-1.596,5.64-1.596
			c1.316,0,2.532,0.302,3.645,0.907c1.113,0.605,2.031,1.485,2.756,2.642L369.754,13.152z M361.9,30.349
			c1.288,0,2.411-0.287,3.37-0.86c0.959-0.573,1.764-1.473,2.415-2.698c0.65-1.226,0.976-2.477,0.976-3.754
			c0-1.688-0.49-3.046-1.469-4.073s-2.27-1.542-3.873-1.542c-1.866,0-3.449,0.686-4.75,2.057s-1.951,3.141-1.951,5.308
			c0,1.671,0.493,3.016,1.479,4.035S360.35,30.349,361.9,30.349z"/>
		<path fill="#D78C30" d="M387.395,13.152h4.66l-0.372,2.899c1.396-2.298,3.075-3.447,5.033-3.447c0.471,0,0.96,0.125,1.47,0.375
			l-1.913,4.756c-0.397-0.143-0.688-0.214-0.874-0.214c-1.021,0-1.931,0.591-2.732,1.772c-0.801,1.182-1.434,3.568-1.896,7.159
			l-1.033,8.011h-5.254L387.395,13.152z"/>
		<path fill="#D78C30" d="M422.512,28.226l4.603,2.385c-1.031,1.356-2.399,2.428-4.104,3.217c-1.704,0.788-3.594,1.183-5.67,1.183
			c-3.252,0-5.814-0.914-7.688-2.742c-1.874-1.828-2.812-4.256-2.812-7.286c0-3.46,1.172-6.388,3.517-8.785
			c2.344-2.396,5.174-3.594,8.49-3.594c1.998,0,3.777,0.438,5.338,1.312c1.56,0.875,2.791,2.148,3.691,3.819
			c0.901,1.672,1.352,3.486,1.352,5.445c0,0.614-0.065,1.332-0.195,2.154h-17.002c0.053,1.481,0.539,2.662,1.46,3.54
			c0.92,0.878,2.19,1.317,3.81,1.317C419.26,30.192,420.997,29.537,422.512,28.226z M423.844,21.496
			c-0.393-1.306-1.045-2.294-1.959-2.967c-0.914-0.672-2.018-1.009-3.311-1.009c-1.279,0-2.436,0.346-3.467,1.038
			c-1.031,0.692-1.814,1.671-2.35,2.938H423.844z"/>
	</g>
</g>
<g>
	<path fill="#D78C30" d="M178.987,51.554h3.636c0.584-4.45,1.237-7.495,1.958-9.135c0.721-1.64,1.697-2.868,2.931-3.682
		c1.232-0.815,2.758-1.222,4.575-1.222c2.36,0,4.544,0.679,6.55,2.037l-0.94,6.832c-1.149-1.023-2.309-1.536-3.479-1.536
		c-0.877,0-1.52,0.319-1.927,0.956c-0.408,0.637-0.842,2.554-1.301,5.75h5.202l-0.909,7.208h-5.18l-3.77,26.889h-8.35l3.674-26.889
		h-3.58L178.987,51.554z"/>
	<path fill="#D78C30" d="M232.747,51.554h8.378l-4.753,34.097h-8.283l0.5-3.662c-1.82,1.69-3.52,2.869-5.099,3.537
		s-3.352,1.002-5.318,1.002c-4.519,0-8.111-1.661-10.777-4.982c-2.667-3.322-4.001-7.187-4.001-11.596
		c0-3.363,0.854-6.565,2.561-9.605c1.706-3.04,3.997-5.411,6.873-7.114c2.877-1.703,5.884-2.554,9.024-2.554
		c2.106,0,4.051,0.484,5.831,1.451c1.78,0.968,3.25,2.376,4.409,4.227L232.747,51.554z M220.181,79.068
		c2.061,0,3.858-0.459,5.393-1.376c1.535-0.917,2.822-2.356,3.863-4.317c1.04-1.96,1.561-3.963,1.561-6.007
		c0-2.701-0.783-4.874-2.349-6.517c-1.566-1.644-3.632-2.466-6.197-2.466c-2.985,0-5.519,1.097-7.6,3.291
		c-2.081,2.194-3.122,5.025-3.122,8.493c0,2.675,0.789,4.826,2.365,6.456C215.672,78.254,217.7,79.068,220.181,79.068z"/>
	<path fill="#D78C30" d="M287.61,58.601l-7.079,3.853c-2.005-2.545-4.697-3.817-8.08-3.817c-2.276,0-4.291,0.485-6.045,1.455
		c-1.754,0.97-3.153,2.373-4.197,4.208s-1.565,3.775-1.565,5.82c0,2.628,0.824,4.735,2.474,6.321
		c1.649,1.585,3.915,2.378,6.797,2.378c3.987,0,7.047-1.346,9.177-4.037l6.577,4.648c-1.86,2.22-4.176,3.957-6.945,5.213
		s-5.858,1.885-9.265,1.885c-5.31,0-9.495-1.462-12.558-4.387c-3.062-2.926-4.593-6.791-4.593-11.596
		c0-5.495,1.891-10.18,5.674-14.056c3.783-3.875,8.653-5.813,14.61-5.813C279.302,50.676,284.308,53.318,287.61,58.601z"/>
	<path fill="#D78C30" d="M305.666,38.893h8.318l-1.722,12.661h5.296l-1.003,7.208h-5.272l-3.656,26.889h-8.35l3.674-26.889h-4.105
		l0.972-7.208h4.118L305.666,38.893z"/>
	<path fill="#D78C30" d="M344.993,50.676c3.029,0,5.782,0.7,8.258,2.1c2.476,1.4,4.403,3.384,5.782,5.954s2.068,5.453,2.068,8.649
		c0,5.307-1.892,9.825-5.673,13.554c-3.781,3.729-8.461,5.594-14.039,5.594c-4.848,0-8.713-1.467-11.596-4.402
		s-4.324-6.775-4.324-11.518c0-5.724,1.953-10.478,5.859-14.259C335.236,52.567,339.791,50.676,344.993,50.676z M344.411,58.605
		c-3.421,0-6.043,1.228-7.868,3.682c-1.825,2.455-2.737,5.113-2.737,7.976c0,2.549,0.745,4.602,2.236,6.158
		c1.491,1.557,3.479,2.335,5.96,2.335c3.525,0,6.211-1.186,8.057-3.557c1.846-2.371,2.77-5.082,2.77-8.132
		c0-2.507-0.783-4.544-2.347-6.111C348.917,59.388,346.894,58.605,344.411,58.605z"/>
	<path fill="#D78C30" d="M375.218,51.554h7.457l-0.596,4.638c2.235-3.677,4.92-5.516,8.054-5.516c0.752,0,1.536,0.2,2.351,0.6
		l-3.061,7.609c-0.636-0.228-1.103-0.343-1.398-0.343c-1.633,0-3.089,0.946-4.371,2.836c-1.282,1.891-2.294,5.709-3.035,11.454
		l-1.653,12.818h-8.405L375.218,51.554z"/>
	<path fill="#D78C30" d="M399.401,51.554h8.222l6.634,20.225l11.663-20.225h9.019l-26.783,46.569h-8.836l9.674-17.127
		L399.401,51.554z"/>
</g>
</svg>
